# xmcd
#
# Track frame offsets:
#	182
#	17645
#	29577
#	39517
#	56220
#	71660
#	89127
#	103565
#	119945
#	132687
#
# Disc length: 1906 seconds
#
# Revision: 2
# Processed by: cddbd v1.5.2PL0 Copyright (c) Steve Scherf et al.
# Submitted via: audiograbber 1.83.01
#
DISCID=9d07700a
DTITLE=Reba McEntire - Reba Nell McEntire
DYEAR=1986
DGENRE=Country
TTITLE0=I've Never Stopped Dreaming Of You
TTITLE1=Hold On
TTITLE2=I Know I'll Have A Better Day
TTITLE3=Don't Say Goodbye, Say Good Morning
TTITLE4=Muddy Mississippi
TTITLE5=It's Another Silent Night
TTITLE6=Empty Arms
TTITLE7=Love Is Never Easy
TTITLE8=Waitin' For The Sun To Shine
TTITLE9=Good Friends
EXTD=
EXTT0=
EXTT1=
EXTT2=
EXTT3=
EXTT4=
EXTT5=
EXTT6=
EXTT7=
EXTT8=
EXTT9=
PLAYORDER=
